#VRML V2.0 utf8

# Converted from Open Inventor / VRML 1.0 format
# Generated by convert-inventor-to-vrml2.js

Transform {
  rotation 1 0 0 -1.5708
  children [

# Shape 1: Sphere
Shape {
  appearance Appearance {
    material Material {
      diffuseColor 0.6 0.9 1
      transparency 0.5
    }
  }
  geometry Sphere { radius 0.999 }
}

# Shape 2: IndexedLineSet
Shape {
  appearance Appearance {
    material Material {
      emissiveColor 0.1 0.1 1
    }
  }
  geometry IndexedLineSet {
    coord Coordinate {
      point [
        0.722531 0.072709 0.687505,
        0.709078 0.0953446 0.698654,
        0.709829 0.132152 0.691866,
        0.733002 0.151211 0.663207,
        0.741377 0.180875 0.646254,
        0.743552 0.214969 0.633182,
        0.729785 0.244014 0.638648,
        0.722237 0.214361 0.657589,
        0.720043 0.179766 0.67024,
        0.705516 0.15394 0.691773,
        0.687322 0.167098 0.706871,
        0.686533 0.204633 0.697709,
        0.694607 0.23529 0.679824,
        0.702142 0.265533 0.660673,
        0.724686 0.283046 0.628264,
        0.705934 0.297722 0.642665,
        0.687513 0.317233 0.653214,
        0.668302 0.336681 0.663339,
        0.642799 0.330566 0.691039,
        0.61984 0.339212 0.707625,
        0.597279 0.352763 0.720289,
        0.573983 0.366049 0.732497,
        0.551085 0.38441 0.740631,
        0.52961 0.413276 0.740754,
        0.531556 0.447172 0.719364,
        0.545582 0.473744 0.691308,
        0.572907 0.475241 0.667775,
        0.595143 0.451377 0.664879,
        0.616576 0.427287 0.661256,
        0.638132 0.407967 0.652956,
        0.658909 0.388472 0.64415,
        0.677926 0.363956 0.638712,
        0.686933 0.390414 0.612944,
        0.669517 0.424498 0.609548,
        0.667001 0.457504 0.588047,
        0.681575 0.476746 0.55513,
        0.702094 0.489333 0.517318,
        0.71476 0.505863 0.48293,
        0.716711 0.529442 0.453891,
        0.718006 0.551919 0.42409,
        0.712054 0.578911 0.397293,
        0.708764 0.601944 0.367854,
        0.708173 0.620935 0.336053,
        0.703658 0.641536 0.305445,
        0.701502 0.660642 0.267296,
        0.692439 0.681343 0.237277,
        0.671772 0.700654 0.24043,
        0.650843 0.717268 0.248858,
        0.629962 0.728754 0.26845,
        0.604696 0.739796 0.295034,
        0.581656 0.752627 0.308593,
        0.557654 0.76756 0.31603,
        0.532991 0.782006 0.32309,
        0.507837 0.793344 0.335718,
        0.504123 0.7792 0.372435,
        0.504194 0.761305 0.40768,
        0.529911 0.738004 0.417784,
        0.555129 0.723692 0.410002,
        0.579601 0.69912 0.418682,
        0.58713 0.673534 0.449033,
        0.586033 0.65163 0.481605,
        0.559984 0.647004 0.517499,
        0.536113 0.680635 0.499318,
        0.528885 0.707424 0.468863,
        0.503344 0.731718 0.4596,
        0.476869 0.748389 0.460989,
        0.450156 0.771196 0.45013,
        0.422911 0.793067 0.438395,
        0.394894 0.807715 0.437785,
        0.361953 0.829557 0.425236,
        0.333551 0.851348 0.404907,
        0.319749 0.872417 0.369661,
        0.296005 0.894596 0.334783,
        0.267235 0.915903 0.299511,
        0.253002 0.931149 0.262586,
        0.243521 0.943393 0.225184,
        0.238711 0.952813 0.187523,
        0.210017 0.960526 0.182436,
        0.185381 0.957461 0.221138,
        0.179611 0.948934 0.259355,
        0.148699 0.944923 0.291563,
        0.117964 0.945269 0.304222,
        0.0865356 0.942537 0.322701,
        0.0841338 0.92892 0.360596,
        0.0524356 0.926727 0.372058,
        0.0200274 0.920955 0.389154,
        -0.0160403 0.922146 0.386508,
        -0.0444226 0.932352 0.358811,
        -0.0723777 0.94097 0.330662,
        -0.078625 0.953161 0.292065,
        -0.107758 0.953284 0.2822,
        -0.134427 0.957987 0.25336,
        -0.135009 0.967124 0.215506,
        -0.130792 0.975225 0.178407,
        -0.155517 0.977312 0.143792,
        -0.174113 0.979221 0.103979,
        -0.197314 0.977846 0.0698848,
        -0.221416 0.974003 0.0478886,
        -0.23552 0.968418 0.0818371,
        -0.212144 0.970993 0.110303,
        -0.188025 0.972291 0.13891,
        -0.163192 0.972255 0.167595,
        -0.162994 0.965062 0.205155,
        -0.194601 0.95471 0.225074,
        -0.22028 0.954341 0.201766,
        -0.243533 0.955523 0.166337,
        -0.27063 0.94914 0.160911,
        -0.280766 0.939597 0.195776,
        -0.290949 0.928541 0.230565,
        -0.296589 0.917126 0.266298,
        -0.271612 0.917458 0.290687,
        -0.253314 0.908671 0.331886,
        -0.258464 0.893336 0.367625,
        -0.288758 0.881941 0.372557,
        -0.318682 0.869735 0.376832,
        -0.350012 0.850849 0.391851,
        -0.38182 0.82762 0.41141,
        -0.41221 0.806294 0.424232,
        -0.430719 0.781358 0.45162,
        -0.43582 0.759389 0.483103,
        -0.436279 0.737461 0.51557,
        -0.43646 0.714149 0.54726,
        -0.411784 0.708953 0.572556,
        -0.385028 0.711599 0.587691,
        -0.375276 0.687612 0.621577,
        -0.388549 0.657103 0.645946,
        -0.416691 0.645807 0.639767,
        -0.443597 0.638809 0.628606,
        -0.46739 0.649996 0.59921,
        -0.491124 0.655389 0.573814,
        -0.503317 0.625154 0.596535,
        -0.481395 0.604702 0.634503,
        -0.497302 0.571262 0.652956,
        -0.508465 0.538353 0.672042,
        -0.51502 0.505997 0.691896,
        -0.521164 0.473002 0.710392,
        -0.514677 0.442775 0.734206,
        -0.490576 0.432439 0.756526,
        -0.466418 0.409848 0.783887,
        -0.441507 0.391772 0.807209,
        -0.415657 0.384421 0.824287,
        -0.417039 0.349041 0.839195,
        -0.418141 0.313391 0.85261,
        -0.423272 0.277032 0.862609,
        -0.440681 0.239135 0.865225,
        -0.449013 0.202492 0.870278,
        -0.448714 0.167006 0.877932,
        -0.472891 0.164154 0.865695,
        -0.485477 0.197614 0.851622,
        -0.501859 0.230058 0.833793,
        -0.525686 0.248818 0.813477,
        -0.548975 0.261054 0.794026,
        -0.571326 0.250109 0.781685,
        -0.570394 0.216348 0.792366,
        -0.55452 0.18561 0.811207,
        -0.531535 0.17275 0.829233,
        -0.507934 0.153488 0.847611,
        -0.502842 0.119498 0.856078,
        -0.501326 0.085165 0.861057,
        -0.488336 0.0523069 0.871086,
        -0.471503 0.0197433 0.881643,
        -0.448137 0.0100755 0.893908,
        -0.424692 0.00568683 0.90532,
        -0.423335 -0.0282022 0.905534,
        -0.421787 -0.061565 0.904602,
        -0.398828 -0.0610495 0.914991,
        -0.384257 -0.0271125 0.922828,
        -0.368846 0.0075322 0.92946,
        -0.344228 0.0370749 0.938154,
        -0.344072 0.0725785 0.936134,
        -0.317685 0.10904 0.941906,
        -0.290872 0.121423 0.949026,
        -0.275984 0.158233 0.948048,
        -0.24792 0.170496 0.95366,
        -0.231793 0.207675 0.950338,
        -0.201648 0.232225 0.95153,
        -0.17282 0.231338 0.957401,
        -0.145179 0.268149 0.952376,
        -0.114992 0.272845 0.955161,
        -0.104087 0.233833 0.966689,
        -0.0760126 0.218759 0.972814,
        -0.0465481 0.215894 0.975307,
        -0.0162147 0.218921 0.975608,
        0.014239 0.221497 0.975057,
        0.0394748 0.256785 0.965662,
        0.0399347 0.295551 0.954492,
        0.0739386 0.316276 0.945782,
        0.100198 0.285961 0.952988,
        0.130116 0.280444 0.95101,
        0.13639 0.318159 0.938175,
        0.166377 0.312052 0.935383,
        0.196114 0.305466 0.931789,
        0.224389 0.29221 0.929657,
        0.252243 0.278559 0.926703,
        0.280897 0.270687 0.920774,
        0.310429 0.268505 0.911888,
        0.339578 0.26584 0.902228,
        0.365608 0.250677 0.896377,
        0.332924 0.235507 0.913071,
        0.302612 0.231826 0.924491,
        0.285389 0.197741 0.937791,
        0.300052 0.154416 0.941342,
        0.322603 0.128153 0.937819,
        0.345899 0.107872 0.93205,
        0.370074 0.0934415 0.924291,
        0.393651 0.0788519 0.915872,
        0.418245 0.0699378 0.905638,
        0.442281 0.0607933 0.894814,
        0.465738 0.0514355 0.883427,
        0.488597 0.0418815 0.871504,
        0.51609 0.0488869 0.855138,
        0.507701 0.0910767 0.856706,
        0.52895 0.119737 0.840163,
        0.512488 0.153156 0.844926,
        0.485762 0.152284 0.860723,
        0.456918 0.145113 0.877592,
        0.430683 0.149099 0.890102,
        0.405439 0.158636 0.900252,
        0.436798 0.172604 0.882845,
        0.454136 0.204408 0.867167,
        0.484834 0.217076 0.847239,
        0.510539 0.211828 0.833354,
        0.532616 0.194901 0.82361,
        0.552423 0.172263 0.81557,
        0.568228 0.138574 0.811119,
        0.569126 0.0997765 0.816174,
        0.548234 0.071994 0.833221,
        0.565914 0.0504071 0.822922,
        0.591665 0.0559773 0.804238,
        0.611504 0.0450014 0.789961,
        0.630653 0.0339186 0.775323,
        0.647313 0.0175506 0.762022,
        0.661424 -0.00386082 0.750002,
        0.671038 -0.0350909 0.740592,
        0.687366 -0.0459178 0.724858,
        0.712335 -0.0323136 0.701095,
        0.725481 -0.0483668 0.68654,
        0.716626 -0.0790203 0.692967,
        0.725742 -0.116678 0.678001,
        0.743184 -0.12412 0.657473,
        0.761563 -0.12091 0.636712,
        0.777315 -0.12252 0.617065,
        0.790406 -0.0975611 0.604765,
        0.799261 -0.0688294 0.59703,
        0.794365 -0.0390313 0.606185,
        0.785284 -0.0178574 0.618878,
        0.772114 -0.00576563 0.635459,
        0.758261 0.00635047 0.65192,
        0.743717 0.0184771 0.668239,
        0.730174 0.0355311 0.682337,
        0.722531 0.072709 0.687505
      ]
    }
    coordIndex [
      0, 1, 2, 3, 4, 5, 6, 7, 8, 9,
      10, 11, 12, 13, 14, 15, 16, 17, 18, 19,
      20, 21, 22, 23, 24, 25, 26, 27, 28, 29,
      30, 31, 32, 33, 34, 35, 36, 37, 38, 39,
      40, 41, 42, 43, 44, 45, 46, 47, 48, 49,
      50, 51, 52, 53, 54, 55, 56, 57, 58, 59,
      60, 61, 62, 63, 64, 65, 66, 67, 68, 69,
      70, 71, 72, 73, 74, 75, 76, 77, 78, 79,
      80, 81, 82, 83, 84, 85, 86, 87, 88, 89,
      90, 91, 92, 93, 94, 95, 96, 97, 98, 99,
      100, 101, 102, 103, 104, 105, 106, 107, 108, 109,
      110, 111, 112, 113, 114, 115, 116, 117, 118, 119,
      120, 121, 122, 123, 124, 125, 126, 127, 128, 129,
      130, 131, 132, 133, 134, 135, 136, 137, 138, 139,
      140, 141, 142, 143, 144, 145, 146, 147, 148, 149,
      150, 151, 152, 153, 154, 155, 156, 157, 158, 159,
      160, 161, 162, 163, 164, 165, 166, 167, 168, 169,
      170, 171, 172, 173, 174, 175, 176, 177, 178, 179,
      180, 181, 182, 183, 184, 185, 186, 187, 188, 189,
      190, 191, 192, 193, 194, 195, 196, 197, 198, 199,
      200, 201, 202, 203, 204, 205, 206, 207, 208, 209,
      210, 211, 212, 213, 214, 215, 216, 217, 218, 219,
      220, 221, 222, 223, 224, 225, 226, 227, 228, 229,
      230, 231, 232, 233, 234, 235, 236, 237, 238, 239,
      240, 241, 242, 243, 244, 245, 246, 247, 248, 249,
      250, -1
    ]
  }
}

# Shape 3: IndexedLineSet
Shape {
  appearance Appearance {
    material Material {
      emissiveColor 0.1 0.1 0.9
    }
  }
  geometry IndexedLineSet {
    coord Coordinate {
      point [
        0.408909 -0.173457 0.895939,
        0.434248 -0.147035 0.888712,
        0.431031 -0.109938 0.895615,
        0.412559 -0.0911998 0.906354,
        0.386397 -0.0944099 0.917488,
        0.372094 -0.125886 0.919619,
        0.37638 -0.162745 0.912059,
        0.408909 -0.173457 0.895939
      ]
    }
    coordIndex [
      0, 1, 2, 3, 4, 5, 6, 7, -1
    ]
  }
}

# Shape 4: IndexedLineSet
Shape {
  appearance Appearance {
    material Material {
      emissiveColor 0.1 0.1 0.9
    }
  }
  geometry IndexedLineSet {
    coord Coordinate {
      point [
        0.181362 0.969595 0.164298,
        0.181691 0.977423 0.107855,
        0.139338 0.985602 0.0957752,
        0.138563 0.980476 0.139526,
        0.181362 0.969595 0.164298
      ]
    }
    coordIndex [
      0, 1, 2, 3, 4, -1
    ]
  }
}

# Shape 5: IndexedLineSet
Shape {
  appearance Appearance {
    material Material {
      emissiveColor 0.1 0.1 0.9
    }
  }
  geometry IndexedLineSet {
    coord Coordinate {
      point [
        -0.566178 0.433041 0.701369,
        -0.564695 0.464727 0.682018,
        -0.586519 0.477293 0.65436,
        -0.592058 0.504582 0.628382,
        -0.593439 0.532386 0.603651,
        -0.590673 0.560836 0.580145,
        -0.565614 0.588895 0.577307,
        -0.5543 0.619291 0.556086,
        -0.57443 0.631255 0.521102,
        -0.593309 0.598423 0.5384,
        -0.607753 0.566488 0.556532,
        -0.621552 0.53385 0.573304,
        -0.631145 0.502221 0.591126,
        -0.615244 0.480764 0.624773,
        -0.605987 0.454956 0.65253,
        -0.599962 0.426729 0.676719,
        -0.566178 0.433041 0.701369
      ]
    }
    coordIndex [
      0, 1, 2, 3, 4, 5, 6, 7, 8, 9,
      10, 11, 12, 13, 14, 15, 16, -1
    ]
  }
}

# Shape 6: IndexedLineSet
Shape {
  appearance Appearance {
    material Material {
      emissiveColor 0.1 0.1 0.9
    }
  }
  geometry IndexedLineSet {
    coord Coordinate {
      point [
        0.508912 0.562279 0.651806,
        0.500008 0.535101 0.680925,
        0.494989 0.504751 0.707257,
        0.465567 0.501449 0.729244,
        0.438213 0.513221 0.737953,
        0.413772 0.545595 0.728779,
        0.418677 0.57639 0.701772,
        0.449682 0.584599 0.675299,
        0.435238 0.621403 0.65148,
        0.43891 0.649137 0.621272,
        0.468252 0.650252 0.598258,
        0.511973 0.61984 0.594712,
        0.530263 0.581579 0.616917,
        0.508912 0.562279 0.651806
      ]
    }
    coordIndex [
      0, 1, 2, 3, 4, 5, 6, 7, 8, 9,
      10, 11, 12, 13, -1
    ]
  }
}

# Shape 7: IndexedLineSet
Shape {
  appearance Appearance {
    material Material {
      emissiveColor 0.1 0.1 0.9
    }
  }
  geometry IndexedLineSet {
    coord Coordinate {
      point [
        0.517793 -0.0340451 0.854828,
        0.548488 -0.0481879 0.834769,
        0.582195 -0.0399501 0.812067,
        0.634969 -0.0564881 0.77047,
        0.637477 -0.0205098 0.770196,
        0.620327 0.0146708 0.784206,
        0.594248 0.0165454 0.804111,
        0.564518 -0.0247444 0.82505,
        0.517793 -0.0340451 0.854828
      ]
    }
    coordIndex [
      0, 1, 2, 3, 4, 5, 6, 7, 8, -1
    ]
  }
}

# Shape 8: IndexedLineSet
Shape {
  appearance Appearance {
    material Material {
      emissiveColor 0.1 0.1 0.9
    }
  }
  geometry IndexedLineSet {
    coord Coordinate {
      point [
        0.611433 -0.117076 0.782587,
        0.616485 -0.0769278 0.7836,
        0.578995 -0.0693856 0.812373,
        0.56102 -0.0974032 0.822052,
        0.611433 -0.117076 0.782587
      ]
    }
    coordIndex [
      0, 1, 2, 3, 4, -1
    ]
  }
}

# Shape 9: IndexedLineSet
Shape {
  appearance Appearance {
    material Material {
      emissiveColor 0.1 0.1 0.9
    }
  }
  geometry IndexedLineSet {
    coord Coordinate {
      point [
        0.15131 0.19808 0.968437,
        0.187221 0.229382 0.955161,
        0.185548 0.275377 0.94326,
        0.15161 0.256638 0.954542,
        0.106899 0.232764 0.96664,
        0.0898677 0.190343 0.977596,
        0.15131 0.19808 0.968437
      ]
    }
    coordIndex [
      0, 1, 2, 3, 4, 5, 6, -1
    ]
  }
}

# Shape 10: IndexedLineSet
Shape {
  appearance Appearance {
    material Material {
      emissiveColor 0.1 0.1 0.9
    }
  }
  geometry IndexedLineSet {
    coord Coordinate {
      point [
        -0.417502 0.903795 0.0940553,
        -0.390638 0.918185 0.0658626,
        -0.360824 0.931606 0.0437672,
        -0.33415 0.941749 0.0381141,
        -0.327674 0.944782 0.00412792,
        -0.346225 0.937705 -0.0289506,
        -0.366201 0.929161 -0.0505537,
        -0.38786 0.919685 -0.0611893,
        -0.410193 0.909566 -0.066566,
        -0.432439 0.900845 -0.0384086,
        -0.447407 0.894292 -0.00831892,
        -0.462398 0.886404 0.0218097,
        -0.470016 0.880986 0.0543102,
        -0.473808 0.876195 0.0882543,
        -0.453219 0.882636 0.12468,
        -0.417502 0.903795 0.0940553
      ]
    }
    coordIndex [
      0, 1, 2, 3, 4, 5, 6, 7, 8, 9,
      10, 11, 12, 13, 14, 15, -1
    ]
  }
}

# Shape 11: IndexedLineSet
Shape {
  appearance Appearance {
    material Material {
      emissiveColor 0.1 0.1 0.9
    }
  }
  geometry IndexedLineSet {
    coord Coordinate {
      point [
        -0.10018 0.992479 0.0703501,
        -0.125122 0.991202 0.0431673,
        -0.143518 0.989636 0.00488132,
        -0.156865 0.987093 -0.0322487,
        -0.180532 0.982155 -0.0527161,
        -0.203563 0.976332 -0.0730637,
        -0.225942 0.969666 -0.09326,
        -0.250462 0.963265 -0.096895,
        -0.264326 0.962236 -0.065061,
        -0.23906 0.970265 -0.0378966,
        -0.216255 0.976192 -0.0168286,
        -0.195222 0.980514 0.0219065,
        -0.171723 0.983908 0.0493495,
        -0.146787 0.98662 0.0709501,
        -0.121256 0.988298 0.0925399,
        -0.0693384 0.993347 0.0919413,
        -0.10018 0.992479 0.0703501
      ]
    }
    coordIndex [
      0, 1, 2, 3, 4, 5, 6, 7, 8, 9,
      10, 11, 12, 13, 14, 15, 16, -1
    ]
  }
}

# Shape 12: IndexedLineSet
Shape {
  appearance Appearance {
    material Material {
      emissiveColor 0.1 0.1 0.9
    }
  }
  geometry IndexedLineSet {
    coord Coordinate {
      point [
        -0.368376 0.922825 -0.112669,
        -0.345836 0.932052 -0.108062,
        -0.318976 0.94216 -0.102899,
        -0.300931 0.944349 -0.132838,
        -0.322801 0.935737 -0.142111,
        -0.345305 0.927024 -0.146255,
        -0.371009 0.916224 -0.151283,
        -0.396095 0.904773 -0.156505,
        -0.420543 0.892709 -0.161909,
        -0.444332 0.880068 -0.16748,
        -0.464188 0.868801 -0.172378,
        -0.484955 0.857347 -0.172553,
        -0.512496 0.845693 -0.148832,
        -0.493446 0.857888 -0.143312,
        -0.47387 0.869731 -0.137895,
        -0.453773 0.881198 -0.132589,
        -0.433164 0.892265 -0.127404,
        -0.412054 0.902908 -0.12235,
        -0.390453 0.913102 -0.117435,
        -0.368376 0.922825 -0.112669
      ]
    }
    coordIndex [
      0, 1, 2, 3, 4, 5, 6, 7, 8, 9,
      10, 11, 12, 13, 14, 15, 16, 17, 18, 19,
      -1
    ]
  }
}

# Shape 13: IndexedLineSet
Shape {
  appearance Appearance {
    material Material {
      emissiveColor 0.1 0.1 0.9
    }
  }
  geometry IndexedLineSet {
    coord Coordinate {
      point [
        -0.747456 0.663298 -0.0366764,
        -0.726852 0.684971 -0.0500143,
        -0.71143 0.701251 -0.0459871,
        -0.69979 0.713786 -0.0283599,
        -0.686349 0.727259 -0.00432899,
        -0.671882 0.740602 0.00917117,
        -0.657895 0.752928 -0.0165413,
        -0.668102 0.742789 -0.0436493,
        -0.682037 0.729142 -0.0563747,
        -0.696854 0.714311 -0.0644569,
        -0.711087 0.699349 -0.0725612,
        -0.723246 0.685332 -0.0850648,
        -0.731801 0.673218 -0.106039,
        -0.741281 0.659952 -0.122331,
        -0.750199 0.646582 -0.138318,
        -0.760117 0.632253 -0.149928,
        -0.774122 0.615166 -0.149354,
        -0.788446 0.601386 -0.129183,
        -0.80154 0.583807 -0.129243,
        -0.811162 0.568483 -0.137271,
        -0.818832 0.554343 -0.149055,
        -0.824571 0.54135 -0.164387,
        -0.831325 0.527276 -0.175726,
        -0.839098 0.512177 -0.183271,
        -0.8526 0.495211 -0.166853,
        -0.848008 0.507812 -0.15169,
        -0.841579 0.521701 -0.139903,
        -0.834701 0.535641 -0.127918,
        -0.828768 0.548292 -0.111892,
        -0.824715 0.560298 -0.0768784,
        -0.814857 0.575676 -0.0678655,
        -0.80269 0.593639 -0.0572882,
        -0.791678 0.609036 -0.0481767,
        -0.778133 0.626978 -0.0375045,
        -0.764509 0.643786 -0.0326436,
        -0.747456 0.663298 -0.0366764
      ]
    }
    coordIndex [
      0, 1, 2, 3, 4, 5, 6, 7, 8, 9,
      10, 11, 12, 13, 14, 15, 16, 17, 18, 19,
      20, 21, 22, 23, 24, 25, 26, 27, 28, 29,
      30, 31, 32, 33, 34, 35, -1
    ]
  }
}

# Shape 14: IndexedLineSet
Shape {
  appearance Appearance {
    material Material {
      emissiveColor 0.1 0.1 0.9
    }
  }
  geometry IndexedLineSet {
    coord Coordinate {
      point [
        -0.514861 0.857123 0.0160475,
        -0.503357 0.863961 -0.0142344,
        -0.488373 0.87156 -0.0433107,
        -0.493782 0.866045 -0.0783935,
        -0.516439 0.853079 -0.0744844,
        -0.524828 0.850071 -0.04399,
        -0.53645 0.843809 -0.0143974,
        -0.564344 0.825492 0.00890838,
        -0.57581 0.816687 0.0382777,
        -0.557471 0.828593 0.0515655,
        -0.514861 0.857123 0.0160475
      ]
    }
    coordIndex [
      0, 1, 2, 3, 4, 5, 6, 7, 8, 9,
      10, -1
    ]
  }
}

# Shape 15: IndexedLineSet
Shape {
  appearance Appearance {
    material Material {
      emissiveColor 0.1 0.1 0.9
    }
  }
  geometry IndexedLineSet {
    coord Coordinate {
      point [
        -0.544901 0.820483 0.17289,
        -0.526763 0.837507 0.145266,
        -0.545683 0.828488 0.125849,
        -0.567713 0.814098 0.122256,
        -0.587911 0.793087 0.159295,
        -0.56855 0.804017 0.174088,
        -0.544901 0.820483 0.17289
      ]
    }
    coordIndex [
      0, 1, 2, 3, 4, 5, 6, -1
    ]
  }
}

# Shape 16: IndexedLineSet
Shape {
  appearance Appearance {
    material Material {
      emissiveColor 0.1 0.1 0.9
    }
  }
  geometry IndexedLineSet {
    coord Coordinate {
      point [
        -0.479656 0.840387 0.252351,
        -0.500927 0.833758 0.232206,
        -0.519144 0.814183 0.259991,
        -0.517926 0.802762 0.29551,
        -0.47626 0.817258 0.324445,
        -0.474095 0.831342 0.290008,
        -0.479656 0.840387 0.252351
      ]
    }
    coordIndex [
      0, 1, 2, 3, 4, 5, 6, -1
    ]
  }
}

# Shape 17: IndexedLineSet
Shape {
  appearance Appearance {
    material Material {
      emissiveColor 0.1 0.1 0.9
    }
  }
  geometry IndexedLineSet {
    coord Coordinate {
      point [
        -0.476463 0.362282 0.801083,
        -0.504156 0.401512 0.764601,
        -0.535388 0.426314 0.72912,
        -0.559568 0.403128 0.724135,
        -0.524974 0.379734 0.761712,
        -0.476463 0.362282 0.801083
      ]
    }
    coordIndex [
      0, 1, 2, 3, 4, 5, -1
    ]
  }
}

# Shape 18: IndexedLineSet
Shape {
  appearance Appearance {
    material Material {
      emissiveColor 0.1 0.1 0.9
    }
  }
  geometry IndexedLineSet {
    coord Coordinate {
      point [
        0.778221 0.219399 0.588418,
        0.759677 0.224641 0.610268,
        0.774967 0.169587 0.608823,
        0.778221 0.219399 0.588418
      ]
    }
    coordIndex [
      0, 1, 2, 3, -1
    ]
  }
}

# Shape 19: IndexedLineSet
Shape {
  appearance Appearance {
    material Material {
      emissiveColor 0.1 0.1 0.9
    }
  }
  geometry IndexedLineSet {
    coord Coordinate {
      point [
        0.775266 0.115045 0.62107,
        0.762881 0.138319 0.63157,
        0.73545 0.12466 0.666013,
        0.753722 0.09722 0.649963,
        0.775266 0.115045 0.62107
      ]
    }
    coordIndex [
      0, 1, 2, 3, 4, -1
    ]
  }
}

# Shape 20: IndexedLineSet
Shape {
  appearance Appearance {
    material Material {
      emissiveColor 0.1 0.1 0.9
    }
  }
  geometry IndexedLineSet {
    coord Coordinate {
      point [
        0.863599 -0.222974 0.452194,
        0.8728 -0.247145 0.420879,
        0.884706 -0.262171 0.385436,
        0.89703 -0.268596 0.350989,
        0.912231 -0.257452 0.318674,
        0.92308 -0.25976 0.283633,
        0.929137 -0.275641 0.246427,
        0.938314 -0.273833 0.211148,
        0.950817 -0.2541 0.177147,
        0.960724 -0.225761 0.161372,
        0.972398 -0.196113 0.126415,
        0.980625 -0.16659 0.103066,
        0.986277 -0.137162 0.0918889,
        0.98978 -0.107831 0.0933164,
        0.992435 -0.0781492 0.0946907,
        0.994215 -0.0481522 0.0960084,
        0.994426 -0.0181421 0.103868,
        0.993662 0.012086 0.111754,
        0.991906 0.0424895 0.119653,
        0.989959 0.073345 0.120838,
        0.989241 0.105224 0.101635,
        0.986596 0.136834 0.0889062,
        0.988512 0.143325 0.0479834,
        0.986295 0.16484 0.00710307,
        0.982005 0.185764 -0.0340147,
        0.976723 0.200878 -0.0752323,
        0.967247 0.22556 -0.116429,
        0.958331 0.233803 -0.164126,
        0.948563 0.241586 -0.204609,
        0.94239 0.228603 -0.244217,
        0.935819 0.210208 -0.282939,
        0.923061 0.211346 -0.321389,
        0.905194 0.226609 -0.359545,
        0.891008 0.221602 -0.396228,
        0.871668 0.230512 -0.432504,
        0.849574 0.243345 -0.467982,
        0.829118 0.245955 -0.502065,
        0.802966 0.261622 -0.535536,
        0.778804 0.267219 -0.567502,
        0.765267 0.292541 -0.573398,
        0.763943 0.32343 -0.558376,
        0.752059 0.34972 -0.558662,
        0.745657 0.378805 -0.548181,
        0.744292 0.410822 -0.526549,
        0.741534 0.442611 -0.504205,
        0.745339 0.472948 -0.469883,
        0.760773 0.481725 -0.434932,
        0.756436 0.51405 -0.404423,
        0.769676 0.521932 -0.367675,
        0.784577 0.524858 -0.330095,
        0.772713 0.553684 -0.3104,
        0.757962 0.580802 -0.296922,
        0.743812 0.608355 -0.276853,
        0.745911 0.622287 -0.237433,
        0.759803 0.619344 -0.19777,
        0.765782 0.623551 -0.157356,
        0.773677 0.622775 -0.116514,
        0.760047 0.645498 -0.0752457,
        0.747897 0.662945 -0.0339654,
        0.726881 0.686732 -0.00664687,
        0.704383 0.709296 0.0272599,
        0.680705 0.730567 0.0539578,
        0.654804 0.749963 0.0937414,
        0.635037 0.760909 0.133212,
        0.621761 0.763963 0.172551,
        0.640797 0.74105 0.200559,
        0.665943 0.721702 0.188852,
        0.689413 0.700728 0.183548,
        0.711223 0.678243 0.184794,
        0.728905 0.652835 0.206167,
        0.737895 0.627962 0.247336,
        0.73834 0.610003 0.287662,
        0.748621 0.579808 0.321543,
        0.748865 0.555825 0.360915,
        0.747322 0.530966 0.39948,
        0.752421 0.49232 0.437587,
        0.746894 0.459984 0.480171,
        0.733993 0.43569 0.520988,
        0.759009 0.397218 0.515872,
        0.769551 0.36842 0.521592,
        0.776018 0.337805 0.532619,
        0.781465 0.306979 0.543209,
        0.809901 0.292057 0.508688,
        0.820306 0.263468 0.507625,
        0.823521 0.232074 0.517644,
        0.822443 0.19937 0.532766,
        0.826876 0.169245 0.536313,
        0.807723 0.156854 0.568314,
        0.789876 0.13482 0.598264,
        0.79253 0.105262 0.60068,
        0.797984 0.0770016 0.59774,
        0.802603 0.0487601 0.594517,
        0.806394 0.0205764 0.591021,
        0.812959 -0.00648738 0.582285,
        0.822702 -0.0419251 0.566925,
        0.816811 -0.076194 0.571852,
        0.823588 -0.120374 0.554268,
        0.842725 -0.138744 0.520158,
        0.86119 -0.143804 0.487517,
        0.861851 -0.170629 0.477596,
        0.858698 -0.197766 0.472785,
        0.863599 -0.222974 0.452194
      ]
    }
    coordIndex [
      0, 1, 2, 3, 4, 5, 6, 7, 8, 9,
      10, 11, 12, 13, 14, 15, 16, 17, 18, 19,
      20, 21, 22, 23, 24, 25, 26, 27, 28, 29,
      30, 31, 32, 33, 34, 35, 36, 37, 38, 39,
      40, 41, 42, 43, 44, 45, 46, 47, 48, 49,
      50, 51, 52, 53, 54, 55, 56, 57, 58, 59,
      60, 61, 62, 63, 64, 65, 66, 67, 68, 69,
      70, 71, 72, 73, 74, 75, 76, 77, 78, 79,
      80, 81, 82, 83, 84, 85, 86, 87, 88, 89,
      90, 91, 92, 93, 94, 95, 96, 97, 98, 99,
      100, 101, -1
    ]
  }
}

# Shape 21: IndexedLineSet
Shape {
  appearance Appearance {
    material Material {
      emissiveColor 0.1 0.1 0.9
    }
  }
  geometry IndexedLineSet {
    coord Coordinate {
      point [
        0.648084 0.726864 -0.22728,
        0.665338 0.701996 -0.254023,
        0.68275 0.677222 -0.274266,
        0.683862 0.659121 -0.312878,
        0.676662 0.647561 -0.35042,
        0.674929 0.627882 -0.387601,
        0.648716 0.633177 -0.422203,
        0.62619 0.652778 -0.426341,
        0.611719 0.678288 -0.407093,
        0.62007 0.691126 -0.371292,
        0.619967 0.709919 -0.33415,
        0.614669 0.731088 -0.296129,
        0.611597 0.747982 -0.257822,
        0.648084 0.726864 -0.22728
      ]
    }
    coordIndex [
      0, 1, 2, 3, 4, 5, 6, 7, 8, 9,
      10, 11, 12, 13, -1
    ]
  }
}

# Shape 22: IndexedLineSet
Shape {
  appearance Appearance {
    material Material {
      emissiveColor 0.1 0.1 0.9
    }
  }
  geometry IndexedLineSet {
    coord Coordinate {
      point [
        0.873856 -0.388962 0.291693,
        0.874954 -0.411586 0.255054,
        0.892872 -0.382591 0.237495,
        0.895424 -0.358849 0.263523,
        0.873856 -0.388962 0.291693
      ]
    }
    coordIndex [
      0, 1, 2, 3, 4, -1
    ]
  }
}

# Shape 23: IndexedLineSet
Shape {
  appearance Appearance {
    material Material {
      emissiveColor 0.1 0.1 0.9
    }
  }
  geometry IndexedLineSet {
    coord Coordinate {
      point [
        -0.578706 0.778689 -0.242369,
        -0.566113 0.788213 -0.241322,
        -0.550583 0.795352 -0.253522,
        -0.541846 0.794893 -0.273036,
        -0.525011 0.800802 -0.288234,
        -0.513623 0.810962 -0.280235,
        -0.497801 0.814244 -0.298665,
        -0.486032 0.814262 -0.317412,
        -0.473972 0.813923 -0.335975,
        -0.458828 0.820647 -0.340611,
        -0.444534 0.827938 -0.341918,
        -0.427918 0.836296 -0.342776,
        -0.413461 0.843099 -0.343851,
        -0.397964 0.848846 -0.347973,
        -0.381399 0.853491 -0.355089,
        -0.363947 0.854018 -0.371746,
        -0.366725 0.843746 -0.391926,
        -0.362448 0.836627 -0.410715,
        -0.344366 0.836256 -0.426717,
        -0.352133 0.823742 -0.444356,
        -0.349464 0.814516 -0.463076,
        -0.342077 0.807404 -0.480711,
        -0.349165 0.793829 -0.497915,
        -0.356 0.779814 -0.514932,
        -0.35902 0.765357 -0.534165,
        -0.357357 0.753163 -0.552305,
        -0.361961 0.736524 -0.571416,
        -0.37495 0.728134 -0.573789,
        -0.390751 0.722388 -0.570499,
        -0.410046 0.716323 -0.564574,
        -0.426375 0.707147 -0.564046,
        -0.440485 0.699253 -0.563043,
        -0.460169 0.696599 -0.550449,
        -0.47894 0.696493 -0.534335,
        -0.496195 0.687575 -0.530124,
        -0.509886 0.678783 -0.528461,
        -0.522098 0.668514 -0.529625,
        -0.535548 0.659332 -0.527703,
        -0.548867 0.649955 -0.525646,
        -0.56205 0.640386 -0.523455,
        -0.572378 0.628122 -0.527111,
        -0.581169 0.614408 -0.533615,
        -0.582236 0.597202 -0.55168,
        -0.577308 0.585391 -0.56924,
        -0.588473 0.573877 -0.56953,
        -0.606382 0.572137 -0.552232,
        -0.618703 0.561623 -0.549351,
        -0.61538 0.547745 -0.566818,
        -0.61174 0.533616 -0.583976,
        -0.609536 0.517238 -0.600775,
        -0.612024 0.497998 -0.614349,
        -0.619012 0.482873 -0.619401,
        -0.629034 0.470498 -0.618827,
        -0.640494 0.459426 -0.615383,
        -0.651749 0.444688 -0.614391,
        -0.661194 0.431933 -0.613397,
        -0.67035 0.415512 -0.614801,
        -0.685834 0.408103 -0.602564,
        -0.702583 0.401813 -0.587302,
        -0.713286 0.407601 -0.570162,
        -0.729394 0.400806 -0.554382,
        -0.739273 0.388695 -0.549902,
        -0.753446 0.387223 -0.531392,
        -0.763196 0.392264 -0.513479,
        -0.779291 0.385729 -0.493881,
        -0.792279 0.383445 -0.47462,
        -0.797154 0.394653 -0.456939,
        -0.803002 0.403362 -0.438733,
        -0.81113 0.40727 -0.419761,
        -0.804117 0.425288 -0.415362,
        -0.799231 0.441901 -0.407373,
        -0.799954 0.456738 -0.389183,
        -0.795478 0.473955 -0.3776,
        -0.795448 0.488282 -0.358947,
        -0.796479 0.50009 -0.3399,
        -0.791008 0.516621 -0.327733,
        -0.79136 0.527895 -0.308343,
        -0.792868 0.536686 -0.288668,
        -0.794698 0.54585 -0.265523,
        -0.783582 0.571763 -0.243076,
        -0.784425 0.583752 -0.20955,
        -0.772831 0.605551 -0.189844,
        -0.764914 0.608807 -0.21038,
        -0.761605 0.605584 -0.230705,
        -0.756296 0.60415 -0.251036,
        -0.747271 0.606567 -0.271408,
        -0.736135 0.610736 -0.291731,
        -0.724988 0.622251 -0.295288,
        -0.71441 0.634314 -0.295405,
        -0.706643 0.648939 -0.282017,
        -0.698583 0.663242 -0.268499,
        -0.695257 0.674559 -0.248169,
        -0.698984 0.677862 -0.227868,
        -0.711536 0.671276 -0.207619,
        -0.70265 0.684606 -0.193901,
        -0.689938 0.694562 -0.203885,
        -0.678623 0.705705 -0.203595,
        -0.668225 0.717556 -0.196441,
        -0.657133 0.728752 -0.192605,
        -0.645365 0.739329 -0.192084,
        -0.647942 0.731396 -0.212676,
        -0.634887 0.740959 -0.218855,
        -0.621102 0.74655 -0.238529,
        -0.612979 0.746635 -0.258441,
        -0.599319 0.755612 -0.264322,
        -0.589803 0.767864 -0.250034,
        -0.578706 0.778689 -0.242369
      ]
    }
    coordIndex [
      0, 1, 2, 3, 4, 5, 6, 7, 8, 9,
      10, 11, 12, 13, 14, 15, 16, 17, 18, 19,
      20, 21, 22, 23, 24, 25, 26, 27, 28, 29,
      30, 31, 32, 33, 34, 35, 36, 37, 38, 39,
      40, 41, 42, 43, 44, 45, 46, 47, 48, 49,
      50, 51, 52, 53, 54, 55, 56, 57, 58, 59,
      60, 61, 62, 63, 64, 65, 66, 67, 68, 69,
      70, 71, 72, 73, 74, 75, 76, 77, 78, 79,
      80, 81, 82, 83, 84, 85, 86, 87, 88, 89,
      90, 91, 92, 93, 94, 95, 96, 97, 98, 99,
      100, 101, 102, 103, 104, 105, 106, -1
    ]
  }
}

# Shape 24: IndexedLineSet
Shape {
  appearance Appearance {
    material Material {
      emissiveColor 0.1 0.1 0.9
    }
  }
  geometry IndexedLineSet {
    coord Coordinate {
      point [
        -0.615447 0.433891 -0.658,
        -0.606631 0.422689 -0.6733,
        -0.609085 0.404031 -0.682476,
        -0.620216 0.392977 -0.678896,
        -0.633873 0.397854 -0.663263,
        -0.645762 0.404653 -0.647493,
        -0.639866 0.420342 -0.643338,
        -0.615447 0.433891 -0.658
      ]
    }
    coordIndex [
      0, 1, 2, 3, 4, 5, 6, 7, -1
    ]
  }
}

# Shape 25: IndexedLineSet
Shape {
  appearance Appearance {
    material Material {
      emissiveColor 0.1 0.1 0.9
    }
  }
  geometry IndexedLineSet {
    coord Coordinate {
      point [
        -0.902858 0.211347 -0.374405,
        -0.905202 0.232215 -0.355928,
        -0.902741 0.268041 -0.33647,
        -0.895237 0.260784 -0.361308,
        -0.895162 0.238472 -0.376585,
        -0.902858 0.211347 -0.374405
      ]
    }
    coordIndex [
      0, 1, 2, 3, 4, 5, -1
    ]
  }
}

# Shape 26: IndexedLineSet
Shape {
  appearance Appearance {
    material Material {
      emissiveColor 0.1 0.1 0.9
    }
  }
  geometry IndexedLineSet {
    coord Coordinate {
      point [
        -0.962522 0.0137714 -0.270855,
        -0.95554 0.0371187 -0.292516,
        -0.948433 0.0535933 -0.312414,
        -0.94947 0.0209063 -0.31316,
        -0.956683 0.017845 -0.290586,
        -0.958508 -0.00272193 -0.285052,
        -0.962522 0.0137714 -0.270855
      ]
    }
    coordIndex [
      0, 1, 2, 3, 4, 5, 6, -1
    ]
  }
}

# Shape 27: IndexedLineSet
Shape {
  appearance Appearance {
    material Material {
      emissiveColor 0.1 0.1 0.9
    }
  }
  geometry IndexedLineSet {
    coord Coordinate {
      point [
        -0.814601 0.111495 -0.569204,
        -0.806969 0.0971364 -0.582551,
        -0.799053 0.082735 -0.595541,
        -0.785731 0.0841438 -0.612818,
        -0.771258 0.087627 -0.630462,
        -0.761961 0.0751941 -0.643243,
        -0.753966 0.0582649 -0.654325,
        -0.760282 0.0462256 -0.647946,
        -0.77482 0.0429113 -0.630724,
        -0.780679 0.0307968 -0.624173,
        -0.793929 0.0294672 -0.607296,
        -0.793558 0.0454604 -0.606794,
        -0.80126 0.0620561 -0.59509,
        -0.810733 0.0718242 -0.580994,
        -0.814831 0.0917217 -0.572396,
        -0.814601 0.111495 -0.569204
      ]
    }
    coordIndex [
      0, 1, 2, 3, 4, 5, 6, 7, 8, 9,
      10, 11, 12, 13, 14, 15, -1
    ]
  }
}

# Shape 28: IndexedLineSet
Shape {
  appearance Appearance {
    material Material {
      emissiveColor 0.1 0.1 0.9
    }
  }
  geometry IndexedLineSet {
    coord Coordinate {
      point [
        -0.746125 0.117883 -0.655287,
        -0.733273 0.125842 -0.668188,
        -0.720096 0.13366 -0.68088,
        -0.712334 0.145624 -0.686567,
        -0.704358 0.15755 -0.69214,
        -0.692326 0.166513 -0.70211,
        -0.679595 0.159891 -0.715951,
        -0.676055 0.1393 -0.723564,
        -0.682183 0.126128 -0.720221,
        -0.694034 0.117294 -0.710323,
        -0.707571 0.10978 -0.698063,
        -0.716953 0.0993159 -0.690011,
        -0.726099 0.0887939 -0.681833,
        -0.74068 0.0823211 -0.666796,
        -0.755348 0.0873205 -0.649481,
        -0.75135 0.104391 -0.651595,
        -0.746125 0.117883 -0.655287
      ]
    }
    coordIndex [
      0, 1, 2, 3, 4, 5, 6, 7, 8, 9,
      10, 11, 12, 13, 14, 15, 16, -1
    ]
  }
}

# Shape 29: IndexedLineSet
Shape {
  appearance Appearance {
    material Material {
      emissiveColor 0.1 0.1 0.9
    }
  }
  geometry IndexedLineSet {
    coord Coordinate {
      point [
        0.215793 -0.123768 -0.968563,
        0.195174 -0.124044 -0.972893,
        0.17806 -0.108323 -0.978039,
        0.174734 -0.0923811 -0.980272,
        0.153918 -0.0791798 -0.984906,
        0.13288 -0.0819821 -0.987736,
        0.118726 -0.0981263 -0.988066,
        0.0975204 -0.108946 -0.989253,
        0.0762673 -0.119743 -0.989871,
        0.0655816 -0.135798 -0.988564,
        0.0548998 -0.151803 -0.986885,
        0.047762 -0.167734 -0.984675,
        0.040634 -0.183601 -0.982161,
        0.0405701 -0.199368 -0.979084,
        0.040501 -0.215058 -0.975761,
        0.0509605 -0.230608 -0.971711,
        0.0686216 -0.214889 -0.974225,
        0.0757687 -0.199159 -0.977034,
        0.096823 -0.198973 -0.97521,
        0.110635 -0.214472 -0.970444,
        0.124351 -0.229842 -0.965251,
        0.141419 -0.245012 -0.95915,
        0.154899 -0.260086 -0.95308,
        0.164774 -0.277612 -0.946457,
        0.171206 -0.292537 -0.940803,
        0.180963 -0.307228 -0.934271,
        0.190619 -0.32176 -0.927435,
        0.183378 -0.336709 -0.92358,
        0.182861 -0.351316 -0.918226,
        0.202551 -0.360232 -0.910607,
        0.225433 -0.366441 -0.902719,
        0.244778 -0.37264 -0.895111,
        0.257016 -0.386103 -0.885927,
        0.236983 -0.396507 -0.886916,
        0.217583 -0.392794 -0.893516,
        0.198207 -0.384234 -0.901708,
        0.178611 -0.375496 -0.909451,
        0.158569 -0.373787 -0.913859,
        0.148909 -0.359645 -0.921131,
        0.13915 -0.345331 -0.928108,
        0.136125 -0.330691 -0.93387,
        0.133063 -0.31592 -0.939409,
        0.129967 -0.301022 -0.944719,
        0.113034 -0.28625 -0.951464,
        0.0923401 -0.281505 -0.955106,
        0.0714407 -0.286823 -0.955316,
        0.0539161 -0.302123 -0.951743,
        0.0330333 -0.307289 -0.951043,
        0.0121833 -0.30234 -0.953122,
        -0.00870612 -0.299828 -0.953953,
        -0.0296307 -0.292198 -0.955899,
        -0.0436649 -0.276905 -0.959905,
        -0.0472587 -0.261563 -0.964029,
        -0.0682682 -0.256273 -0.964191,
        -0.0892902 -0.248352 -0.964546,
        -0.110181 -0.248084 -0.962452,
        -0.13104 -0.245193 -0.960577,
        -0.148615 -0.229446 -0.961909,
        -0.166165 -0.213616 -0.962682,
        -0.180237 -0.197781 -0.963534,
        -0.187404 -0.182016 -0.965272,
        -0.191115 -0.166254 -0.967385,
        -0.187917 -0.150541 -0.97058,
        -0.181225 -0.134802 -0.974159,
        -0.184876 -0.11887 -0.975546,
        -0.188532 -0.100243 -0.976938,
        -0.167819 -0.0871009 -0.981962,
        -0.146871 -0.0872495 -0.9853,
        -0.129421 -0.0712772 -0.989025,
        -0.1154 -0.0552164 -0.991783,
        -0.0942023 -0.0552792 -0.994017,
        -0.0729549 -0.0472423 -0.996216,
        -0.0729784 -0.0310549 -0.99685,
        -0.0800912 -0.014851 -0.996677,
        -0.101355 0.00134884 -0.994849,
        -0.11195 0.0175235 -0.993559,
        -0.129552 0.0336552 -0.991001,
        -0.147064 0.0497304 -0.987876,
        -0.168002 0.0576835 -0.984097,
        -0.188858 0.0575721 -0.980315,
        -0.213009 0.0600922 -0.9752,
        -0.233462 0.0732352 -0.969604,
        -0.25383 0.0756905 -0.964283,
        -0.274107 0.070192 -0.959134,
        -0.294279 0.056798 -0.95403,
        -0.314002 0.0697464 -0.946857,
        -0.317089 0.085435 -0.94454,
        -0.316846 0.10113 -0.94307,
        -0.316563 0.116786 -0.941355,
        -0.316239 0.132397 -0.939395,
        -0.315876 0.147957 -0.937193,
        -0.318738 0.163367 -0.933658,
        -0.321546 0.178696 -0.92988,
        -0.324299 0.193938 -0.925861,
        -0.314026 0.209572 -0.925995,
        -0.313467 0.224791 -0.922609,
        -0.312767 0.242439 -0.918368,
        -0.308888 0.257612 -0.915546,
        -0.301737 0.272853 -0.913513,
        -0.28174 0.283661 -0.916602,
        -0.262019 0.284497 -0.922175,
        -0.25149 0.299783 -0.920262,
        -0.23088 0.317842 -0.919604,
        -0.210393 0.330871 -0.919924,
        -0.196451 0.345987 -0.917442,
        -0.175882 0.358804 -0.916693,
        -0.158569 0.373787 -0.913859,
        -0.147998 0.388414 -0.909522,
        -0.127775 0.388994 -0.912336,
        -0.10741 0.391868 -0.91373,
        -0.0869013 0.399399 -0.912649,
        -0.0630014 0.406866 -0.911313,
        -0.04264 0.402374 -0.914482,
        -0.0222169 0.395396 -0.918242,
        -0.00170735 0.400198 -0.916427,
        0.0187689 0.40253 -0.915214,
        0.0392747 0.397663 -0.916691,
        0.0496672 0.383253 -0.922307,
        0.066965 0.368605 -0.927171,
        0.0808979 0.353835 -0.931803,
        0.0948771 0.338915 -0.936021,
        0.102018 0.323978 -0.940548,
        0.105731 0.308982 -0.945172,
        0.126318 0.311089 -0.941949,
        0.12941 0.325911 -0.936501,
        0.13928 0.340437 -0.929894,
        0.159355 0.349645 -0.92323,
        0.179673 0.346574 -0.920654,
        0.199984 0.341003 -0.918544,
        0.219995 0.340229 -0.914246,
        0.239863 0.339384 -0.909552,
        0.253934 0.319318 -0.912991,
        0.258306 0.294561 -0.920061,
        0.268819 0.279249 -0.921822,
        0.279301 0.26386 -0.923238,
        0.279889 0.248785 -0.927237,
        0.280444 0.233616 -0.931007,
        0.284267 0.218248 -0.933574,
        0.304151 0.212469 -0.928628,
        0.314463 0.196828 -0.92864,
        0.314951 0.181468 -0.931598,
        0.312131 0.166132 -0.935401,
        0.315811 0.150545 -0.936803,
        0.325981 0.13476 -0.935722,
        0.332832 0.119042 -0.935442,
        0.333136 0.103439 -0.937188,
        0.336649 0.0877423 -0.937533,
        0.343454 0.0641511 -0.936976,
        0.353424 0.0326945 -0.934892,
        0.350269 0.0170154 -0.936494,
        0.343824 0.00131061 -0.939033,
        0.34056 -0.0144249 -0.940112,
        0.340498 -0.0301556 -0.939762,
        0.340391 -0.0458746 -0.939164,
        0.333738 -0.0616508 -0.940648,
        0.313972 -0.0723713 -0.94667,
        0.294062 -0.0778746 -0.952609,
        0.27718 -0.0938891 -0.95622,
        0.256826 -0.107349 -0.960477,
        0.236383 -0.115556 -0.964764,
        0.215793 -0.123768 -0.968563
      ]
    }
    coordIndex [
      0, 1, 2, 3, 4, 5, 6, 7, 8, 9,
      10, 11, 12, 13, 14, 15, 16, 17, 18, 19,
      20, 21, 22, 23, 24, 25, 26, 27, 28, 29,
      30, 31, 32, 33, 34, 35, 36, 37, 38, 39,
      40, 41, 42, 43, 44, 45, 46, 47, 48, 49,
      50, 51, 52, 53, 54, 55, 56, 57, 58, 59,
      60, 61, 62, 63, 64, 65, 66, 67, 68, 69,
      70, 71, 72, 73, 74, 75, 76, 77, 78, 79,
      80, 81, 82, 83, 84, 85, 86, 87, 88, 89,
      90, 91, 92, 93, 94, 95, 96, 97, 98, 99,
      100, 101, 102, 103, 104, 105, 106, 107, 108, 109,
      110, 111, 112, 113, 114, 115, 116, 117, 118, 119,
      120, 121, 122, 123, 124, 125, 126, 127, 128, 129,
      130, 131, 132, 133, 134, 135, 136, 137, 138, 139,
      140, 141, 142, 143, 144, 145, 146, 147, 148, 149,
      150, 151, 152, 153, 154, 155, 156, 157, 158, 159,
      160, -1
    ]
  }
}

# Shape 30: IndexedLineSet
Shape {
  appearance Appearance {
    material Material {
      emissiveColor 0.1 0.1 0.9
    }
  }
  geometry IndexedLineSet {
    coord Coordinate {
      point [
        0.149552 -0.169499 -0.974117,
        0.128691 -0.164484 -0.977949,
        0.107722 -0.159409 -0.981318,
        0.10434 -0.14354 -0.984129,
        0.125523 -0.130085 -0.983525,
        0.146469 -0.135201 -0.979932,
        0.149552 -0.169499 -0.974117
      ]
    }
    coordIndex [
      0, 1, 2, 3, 4, 5, 6, -1
    ]
  }
}

# Shape 31: IndexedLineSet
Shape {
  appearance Appearance {
    material Material {
      emissiveColor 0.1 0.1 0.9
    }
  }
  geometry IndexedLineSet {
    coord Coordinate {
      point [
        -0.160997 -0.0630764 -0.984937,
        -0.18189 -0.0629594 -0.981301,
        -0.185444 -0.0468903 -0.981535,
        -0.164582 -0.0416153 -0.985485,
        -0.160997 -0.0630764 -0.984937
      ]
    }
    coordIndex [
      0, 1, 2, 3, 4, -1
    ]
  }
}

# Shape 32: IndexedLineSet
Shape {
  appearance Appearance {
    material Material {
      emissiveColor 0.1 0.1 0.9
    }
  }
  geometry IndexedLineSet {
    coord Coordinate {
      point [
        -0.0329769 -0.317297 -0.947753,
        -0.0537792 -0.317148 -0.94685,
        -0.0643309 -0.302027 -0.951126,
        -0.0435101 -0.299687 -0.953045,
        -0.0329769 -0.317297 -0.947753
      ]
    }
    coordIndex [
      0, 1, 2, 3, 4, -1
    ]
  }
}

# Shape 33: IndexedLineSet
Shape {
  appearance Appearance {
    material Material {
      emissiveColor 0.1 0.1 0.9
    }
  }
  geometry IndexedLineSet {
    coord Coordinate {
      point [
        0.244835 0.611585 -0.752343,
        0.227263 0.607538 -0.761084,
        0.223098 0.618946 -0.753082,
        0.240605 0.622903 -0.74438,
        0.244835 0.611585 -0.752343
      ]
    }
    coordIndex [
      0, 1, 2, 3, 4, -1
    ]
  }
}

# Shape 34: IndexedLineSet
Shape {
  appearance Appearance {
    material Material {
      emissiveColor 0.1 0.1 0.9
    }
  }
  geometry IndexedLineSet {
    coord Coordinate {
      point [
        0.47468 -0.350311 -0.807441,
        0.470486 -0.364202 -0.803742,
        0.460522 -0.351786 -0.814964,
        0.467523 -0.337466 -0.81703,
        0.47468 -0.350311 -0.807441
      ]
    }
    coordIndex [
      0, 1, 2, 3, 4, -1
    ]
  }
}

# Shape 35: IndexedLineSet
Shape {
  appearance Appearance {
    material Material {
      emissiveColor 0.1 0.1 0.9
    }
  }
  geometry IndexedLineSet {
    coord Coordinate {
      point [
        0.331707 -0.526117 -0.783053,
        0.330267 -0.538216 -0.775401,
        0.312154 -0.54209 -0.780191,
        0.310517 -0.530282 -0.788911,
        0.331707 -0.526117 -0.783053
      ]
    }
    coordIndex [
      0, 1, 2, 3, 4, -1
    ]
  }
}

# Shape 36: IndexedLineSet
Shape {
  appearance Appearance {
    material Material {
      emissiveColor 0.1 0.1 0.9
    }
  }
  geometry IndexedLineSet {
    coord Coordinate {
      point [
        0.208933 -0.9769 0.044866,
        0.194227 -0.980784 0.0184023,
        0.172596 -0.984988 -0.00304573,
        0.160564 -0.986584 -0.0295119,
        0.179684 -0.982499 -0.0490788,
        0.163711 -0.983628 -0.0753243,
        0.161117 -0.981594 -0.102544,
        0.171976 -0.976357 -0.130961,
        0.190549 -0.97 -0.150969,
        0.208448 -0.962145 -0.175576,
        0.211745 -0.955901 -0.203512,
        0.229175 -0.946276 -0.228125,
        0.247763 -0.937692 -0.243613,
        0.253718 -0.928333 -0.27171,
        0.271179 -0.917299 -0.29159,
        0.290049 -0.907992 -0.302362,
        0.307947 -0.896854 -0.317525,
        0.316211 -0.883566 -0.345431,
        0.310594 -0.87474 -0.371969,
        0.304642 -0.865252 -0.39816,
        0.301712 -0.853792 -0.424274,
        0.29844 -0.841687 -0.449997,
        0.291514 -0.830302 -0.474992,
        0.28429 -0.818323 -0.499527,
        0.266897 -0.809747 -0.522566,
        0.262443 -0.795325 -0.546427,
        0.260949 -0.779021 -0.570115,
        0.239688 -0.770152 -0.591113,
        0.221553 -0.759357 -0.611794,
        0.212953 -0.744259 -0.633032,
        0.204153 -0.728724 -0.653668,
        0.218697 -0.713039 -0.666144,
        0.203196 -0.699534 -0.685101,
        0.209417 -0.676397 -0.706139,
        0.187597 -0.678744 -0.71001,
        0.187324 -0.657876 -0.729458,
        0.165369 -0.645793 -0.745389,
        0.175435 -0.623374 -0.761989,
        0.159433 -0.608259 -0.777561,
        0.173995 -0.594281 -0.78521,
        0.178452 -0.569348 -0.802495,
        0.203081 -0.572762 -0.794167,
        0.228384 -0.583112 -0.779629,
        0.241885 -0.599126 -0.763243,
        0.264282 -0.610158 -0.746902,
        0.271636 -0.6287 -0.728664,
        0.275723 -0.648508 -0.709517,
        0.300979 -0.656849 -0.691347,
        0.31698 -0.669502 -0.671782,
        0.343488 -0.672351 -0.655713,
        0.368254 -0.671978 -0.642522,
        0.392874 -0.67099 -0.628826,
        0.414121 -0.664574 -0.621969,
        0.43559 -0.671084 -0.599922,
        0.450619 -0.680838 -0.57741,
        0.437371 -0.701982 -0.562074,
        0.474633 -0.670693 -0.569996,
        0.515739 -0.66942 -0.534686,
        0.548379 -0.666406 -0.505157,
        0.581911 -0.663468 -0.470308,
        0.591134 -0.667802 -0.452329,
        0.595596 -0.677907 -0.430938,
        0.635657 -0.660186 -0.400118,
        0.660212 -0.643174 -0.387875,
        0.692686 -0.612335 -0.381094,
        0.711942 -0.601902 -0.361735,
        0.725093 -0.602076 -0.334282,
        0.73528 -0.604318 -0.30686,
        0.747231 -0.603198 -0.278924,
        0.753941 -0.606952 -0.251362,
        0.766947 -0.601783 -0.222821,
        0.782045 -0.587696 -0.20741,
        0.797068 -0.574084 -0.187378,
        0.810147 -0.564404 -0.158462,
        0.816287 -0.562738 -0.13039,
        0.811629 -0.57492 -0.103568,
        0.799596 -0.593587 -0.0911118,
        0.786921 -0.61143 -0.0831155,
        0.773918 -0.62937 -0.0703206,
        0.76048 -0.647219 -0.0526953,
        0.746365 -0.663373 -0.0536203,
        0.731924 -0.679565 -0.0497782,
        0.717146 -0.695707 -0.0411374,
        0.701981 -0.711657 -0.0276797,
        0.686416 -0.726966 -0.018823,
        0.670543 -0.741481 -0.0240277,
        0.654164 -0.755108 -0.0433817,
        0.637488 -0.768932 -0.0485002,
        0.620799 -0.783207 -0.0345654,
        0.620908 -0.783859 -0.00614641,
        0.634531 -0.772574 0.0223582,
        0.630865 -0.774249 0.0504734,
        0.612805 -0.786346 0.0782941,
        0.595038 -0.798401 0.092115,
        0.577528 -0.810625 0.0966838,
        0.559765 -0.822438 0.101291,
        0.542017 -0.834239 0.101308,
        0.522996 -0.843871 0.119817,
        0.506087 -0.849803 0.147344,
        0.486861 -0.858503 0.161057,
        0.4678 -0.867292 0.170197,
        0.448231 -0.874821 0.183788,
        0.42957 -0.884106 0.183918,
        0.410745 -0.892977 0.184068,
        0.391769 -0.901429 0.184238,
        0.371482 -0.90617 0.202132,
        0.352332 -0.913749 0.202299,
        0.333836 -0.923431 0.189283,
        0.318839 -0.933702 0.162917,
        0.307924 -0.932327 0.189601,
        0.287337 -0.93415 0.211662,
        0.268456 -0.942544 0.198854,
        0.249585 -0.951976 0.177337,
        0.236945 -0.959677 0.151248,
        0.203748 -0.965727 0.160801,
        0.177314 -0.972903 0.14839,
        0.207161 -0.97078 0.121123,
        0.220275 -0.970903 0.0939489,
        0.229848 -0.970947 0.0665799,
        0.208933 -0.9769 0.044866
      ]
    }
    coordIndex [
      0, 1, 2, 3, 4, 5, 6, 7, 8, 9,
      10, 11, 12, 13, 14, 15, 16, 17, 18, 19,
      20, 21, 22, 23, 24, 25, 26, 27, 28, 29,
      30, 31, 32, 33, 34, 35, 36, 37, 38, 39,
      40, 41, 42, 43, 44, 45, 46, 47, 48, 49,
      50, 51, 52, 53, 54, 55, 56, 57, 58, 59,
      60, 61, 62, 63, 64, 65, 66, 67, 68, 69,
      70, 71, 72, 73, 74, 75, 76, 77, 78, 79,
      80, 81, 82, 83, 84, 85, 86, 87, 88, 89,
      90, 91, 92, 93, 94, 95, 96, 97, 98, 99,
      100, 101, 102, 103, 104, 105, 106, 107, 108, 109,
      110, 111, 112, 113, 114, 115, 116, 117, 118, 119,
      -1
    ]
  }
}

# Shape 37: IndexedLineSet
Shape {
  appearance Appearance {
    material Material {
      emissiveColor 0.1 0.1 0.9
    }
  }
  geometry IndexedLineSet {
    coord Coordinate {
      point [
        0.224703 -0.557788 -0.798987,
        0.201858 -0.557832 -0.805032,
        0.210222 -0.533759 -0.81909,
        0.225548 -0.521458 -0.822927,
        0.245221 -0.534695 -0.808683,
        0.224703 -0.557788 -0.798987
      ]
    }
    coordIndex [
      0, 1, 2, 3, 4, 5, -1
    ]
  }
}

# Shape 38: IndexedLineSet
Shape {
  appearance Appearance {
    material Material {
      emissiveColor 0.1 0.1 0.9
    }
  }
  geometry IndexedLineSet {
    coord Coordinate {
      point [
        0.645932 -0.763386 0.00370853,
        0.629384 -0.776832 -0.0202154,
        0.659763 -0.751218 -0.0195917,
        0.645932 -0.763386 0.00370853
      ]
    }
    coordIndex [
      0, 1, 2, 3, -1
    ]
  }
}

# Shape 39: IndexedLineSet
Shape {
  appearance Appearance {
    material Material {
      emissiveColor 0.1 0.1 0.9
    }
  }
  geometry IndexedLineSet {
    coord Coordinate {
      point [
        -0.0277142 -0.999446 -0.0184159,
        -0.00925877 -0.999405 -0.0332304,
        0.00307783 -0.999961 -0.00822048,
        -0.0277142 -0.999446 -0.0184159
      ]
    }
    coordIndex [
      0, 1, 2, 3, -1
    ]
  }
}

# Shape 40: IndexedLineSet
Shape {
  appearance Appearance {
    material Material {
      emissiveColor 0.1 0.1 0.9
    }
  }
  geometry IndexedLineSet {
    coord Coordinate {
      point [
        -0.389972 -0.340687 0.855485,
        -0.384578 -0.369893 0.845742,
        -0.378828 -0.398916 0.835078,
        -0.37914 -0.424902 0.822017,
        -0.372753 -0.453431 0.809602,
        -0.379038 -0.476031 0.793552,
        -0.375356 -0.502511 0.778839,
        -0.364791 -0.531387 0.764562,
        -0.357163 -0.558398 0.748749,
        -0.379781 -0.560621 0.735847,
        -0.394959 -0.577059 0.71485,
        -0.400057 -0.597273 0.69514,
        -0.408185 -0.615484 0.674214,
        -0.419309 -0.631622 0.652099,
        -0.426905 -0.648639 0.630095,
        -0.431657 -0.669488 0.60453,
        -0.422504 -0.692733 0.584476,
        -0.413041 -0.715246 0.563755,
        -0.395597 -0.734609 0.551229,
        -0.385602 -0.755723 0.529333,
        -0.381994 -0.773294 0.50606,
        -0.371518 -0.79281 0.483143,
        -0.377425 -0.804865 0.457976,
        -0.363227 -0.824113 0.43463,
        -0.344372 -0.837748 0.423777,
        -0.32983 -0.855322 0.399546,
        -0.311424 -0.871256 0.379379,
        -0.302489 -0.862614 0.40546,
        -0.30688 -0.848761 0.430615,
        -0.325548 -0.833636 0.446173,
        -0.34363 -0.815634 0.465467,
        -0.347616 -0.799615 0.489673,
        -0.348025 -0.784115 0.51385,
        -0.328712 -0.796441 0.507573,
        -0.321477 -0.814042 0.483722,
        -0.31065 -0.831974 0.45969,
        -0.292821 -0.85119 0.435581,
        -0.274408 -0.867361 0.415193,
        -0.255892 -0.882605 0.394369,
        -0.247987 -0.895858 0.368702,
        -0.246798 -0.906428 0.342753,
        -0.231873 -0.91972 0.316782,
        -0.21284 -0.930124 0.29928,
        -0.193121 -0.937257 0.290265,
        -0.169998 -0.944555 0.280923,
        -0.150304 -0.950647 0.271438,
        -0.130243 -0.955104 0.266106,
        -0.110202 -0.959145 0.26057,
        -0.0883769 -0.958176 0.272193,
        -0.0683405 -0.961485 0.266227,
        -0.0493595 -0.966617 0.251426,
        -0.0300096 -0.970112 0.240793,
        -0.0107845 -0.973129 0.230008,
        0.0088468 -0.974695 0.223363,
        0.0300751 -0.972878 0.229354,
        0.0495246 -0.973711 0.22234,
        0.0625085 -0.978908 0.194503,
        0.0803647 -0.980581 0.178891,
        0.0998834 -0.979346 0.175797,
        0.117967 -0.979348 0.164198,
        0.135833 -0.97892 0.152528,
        0.157312 -0.976947 0.14432,
        0.141723 -0.975455 0.168527,
        0.123818 -0.975785 0.180313,
        0.11157 -0.971694 0.208237,
        0.105699 -0.966201 0.235126,
        0.103079 -0.959683 0.261501,
        0.0830771 -0.960695 0.264882,
        0.0629567 -0.96134 0.268071,
        0.0433425 -0.960375 0.27532,
        0.0300271 -0.952433 0.303264,
        0.0337576 -0.943803 0.32878,
        0.0444856 -0.9345 0.353173,
        0.0250385 -0.930825 0.364606,
        0.00397512 -0.939896 0.341438,
        -0.0191426 -0.944891 0.326824,
        -0.0404581 -0.944934 0.324751,
        -0.061767 -0.944577 0.322427,
        -0.0825465 -0.942389 0.324175,
        -0.101347 -0.933857 0.342987,
        -0.119734 -0.922926 0.365883,
        -0.120134 -0.912146 0.391865,
        -0.116889 -0.901139 0.417476,
        -0.113494 -0.889367 0.442883,
        -0.0992723 -0.878478 0.467356,
        -0.0760233 -0.874947 0.478214,
        -0.0533243 -0.873127 0.484568,
        -0.0283596 -0.875715 0.481994,
        -0.0070023 -0.877518 0.479493,
        0.0177987 -0.86755 0.497032,
        0.0405254 -0.863933 0.501974,
        0.0617498 -0.864638 0.498586,
        0.0821356 -0.867307 0.49095,
        0.102391 -0.869569 0.483079,
        0.111835 -0.882737 0.456365,
        0.12463 -0.894806 0.428707,
        0.143658 -0.897782 0.416352,
        0.155008 -0.885008 0.439014,
        0.156179 -0.872149 0.463642,
        0.143596 -0.859204 0.491068,
        0.134347 -0.845116 0.517427,
        0.142458 -0.82972 0.539695,
        0.166372 -0.818407 0.550027,
        0.190163 -0.806521 0.559787,
        0.198325 -0.789562 0.58074,
        0.180056 -0.781936 0.596789,
        0.184795 -0.764141 0.618012,
        0.203309 -0.745192 0.635102,
        0.250314 -0.675013 0.694046,
        0.268292 -0.653519 0.707766,
        0.291919 -0.63463 0.715561,
        0.289721 -0.613591 0.734552,
        0.270571 -0.611018 0.743941,
        0.24934 -0.633421 0.732535,
        0.227497 -0.641199 0.732877,
        0.235473 -0.619435 0.748901,
        0.250111 -0.597104 0.762175,
        0.272374 -0.585321 0.763683,
        0.295048 -0.569498 0.767215,
        0.319411 -0.541992 0.777317,
        0.340629 -0.529351 0.777019,
        0.347671 -0.506109 0.78929,
        0.330548 -0.495532 0.803235,
        0.309313 -0.508051 0.803872,
        0.293199 -0.488927 0.821575,
        0.274261 -0.485156 0.830304,
        0.256567 -0.473047 0.842852,
        0.240205 -0.452385 0.858865,
        0.220928 -0.447551 0.866539,
        0.203053 -0.471361 0.858247,
        0.183466 -0.466144 0.865477,
        0.165346 -0.452411 0.876348,
        0.144811 -0.450663 0.880871,
        0.124167 -0.448635 0.885047,
        0.101748 -0.454588 0.884871,
        0.118407 -0.477378 0.870684,
        0.120414 -0.502405 0.856207,
        0.122456 -0.52707 0.840953,
        0.128032 -0.551605 0.82422,
        0.103662 -0.56549 0.818215,
        0.121489 -0.582608 0.803622,
        0.127144 -0.606077 0.785179,
        0.105149 -0.608395 0.786638,
        0.0924287 -0.58416 0.806358,
        0.0736831 -0.570507 0.817981,
        0.0523557 -0.568089 0.8213,
        0.0309676 -0.565355 0.824266,
        0.0121936 -0.550575 0.834697,
        -0.00833148 -0.543262 0.839522,
        -0.0279281 -0.531664 0.846495,
        -0.0259564 -0.507068 0.861515,
        -0.0203771 -0.482797 0.875495,
        -0.0147653 -0.458241 0.888705,
        0.0048859 -0.435998 0.899934,
        0.0174305 -0.412218 0.910918,
        0.0419296 -0.398985 0.915998,
        0.0507847 -0.374263 0.925931,
        0.0595784 -0.34941 0.935074,
        0.0390486 -0.345918 0.937452,
        0.0197696 -0.368886 0.929264,
        0.0000238846 -0.360745 0.932665,
        -0.0148059 -0.331126 0.94347,
        -0.0333391 -0.318219 0.947431,
        -0.0427551 -0.342931 0.938387,
        -0.0684382 -0.359354 0.930689,
        -0.0890791 -0.354381 0.930849,
        -0.111774 -0.357567 0.927174,
        -0.132315 -0.352089 0.926567,
        -0.15057 -0.337993 0.929026,
        -0.166391 -0.3153 0.934291,
        -0.183062 -0.29661 0.937289,
        -0.201811 -0.286119 0.936701,
        -0.219185 -0.27127 0.937214,
        -0.237532 -0.260428 0.935818,
        -0.257641 -0.244116 0.934895,
        -0.256527 -0.216943 0.941876,
        -0.270355 -0.193436 0.943128,
        -0.275017 -0.164053 0.94734,
        -0.282419 -0.133623 0.949939,
        -0.29785 -0.118407 0.947241,
        -0.314365 -0.10718 0.943232,
        -0.343727 -0.0857191 0.935149,
        -0.366632 -0.0941156 0.925593,
        -0.372267 -0.119278 0.920429,
        -0.390845 -0.115419 0.913191,
        -0.403432 -0.095653 0.909996,
        -0.421492 -0.0915692 0.902197,
        -0.416288 -0.121859 0.90103,
        -0.437258 -0.125396 0.890551,
        -0.453673 -0.117015 0.883453,
        -0.477045 -0.127818 0.869535,
        -0.480232 -0.153889 0.863536,
        -0.494039 -0.174046 0.851841,
        -0.494161 -0.201651 0.84566,
        -0.510369 -0.192481 0.838137,
        -0.524886 -0.179415 0.832049,
        -0.539064 -0.166306 0.825683,
        -0.551494 -0.149426 0.820686,
        -0.564974 -0.136292 0.813774,
        -0.563489 -0.164923 0.809494,
        -0.55109 -0.181936 0.81437,
        -0.538317 -0.198965 0.818918,
        -0.523835 -0.212208 0.824963,
        -0.507684 -0.221578 0.832562,
        -0.49122 -0.230834 0.839892,
        -0.474449 -0.239969 0.846944,
        -0.454755 -0.241173 0.857341,
        -0.434792 -0.242129 0.86737,
        -0.423653 -0.270502 0.864492,
        -0.408256 -0.287008 0.866576,
        -0.403592 -0.316406 0.858487,
        -0.389972 -0.340687 0.855485
      ]
    }
    coordIndex [
      0, 1, 2, 3, 4, 5, 6, 7, 8, 9,
      10, 11, 12, 13, 14, 15, 16, 17, 18, 19,
      20, 21, 22, 23, 24, 25, 26, 27, 28, 29,
      30, 31, 32, 33, 34, 35, 36, 37, 38, 39,
      40, 41, 42, 43, 44, 45, 46, 47, 48, 49,
      50, 51, 52, 53, 54, 55, 56, 57, 58, 59,
      60, 61, 62, 63, 64, 65, 66, 67, 68, 69,
      70, 71, 72, 73, 74, 75, 76, 77, 78, 79,
      80, 81, 82, 83, 84, 85, 86, 87, 88, 89,
      90, 91, 92, 93, 94, 95, 96, 97, 98, 99,
      100, 101, 102, 103, 104, 105, 106, 107, 108, 109,
      110, 111, 112, 113, 114, 115, 116, 117, 118, 119,
      120, 121, 122, 123, 124, 125, 126, 127, 128, 129,
      130, 131, 132, 133, 134, 135, 136, 137, 138, 139,
      140, 141, 142, 143, 144, 145, 146, 147, 148, 149,
      150, 151, 152, 153, 154, 155, 156, 157, 158, 159,
      160, 161, 162, 163, 164, 165, 166, 167, 168, 169,
      170, 171, 172, 173, 174, 175, 176, 177, 178, 179,
      180, 181, 182, 183, 184, 185, 186, 187, 188, 189,
      190, 191, 192, 193, 194, 195, 196, 197, 198, 199,
      200, 201, 202, 203, 204, 205, 206, 207, 208, 209,
      210, 211, -1
    ]
  }
}

# Shape 41: IndexedLineSet
Shape {
  appearance Appearance {
    material Material {
      emissiveColor 0.1 0.1 0.9
    }
  }
  geometry IndexedLineSet {
    coord Coordinate {
      point [
        -0.405664 -0.480771 0.777365,
        -0.402983 -0.510665 0.75949,
        -0.392488 -0.539385 0.744995,
        -0.369511 -0.549322 0.749471,
        -0.384493 -0.522949 0.760716,
        -0.405664 -0.480771 0.777365
      ]
    }
    coordIndex [
      0, 1, 2, 3, 4, 5, -1
    ]
  }
}

# Shape 42: IndexedLineSet
Shape {
  appearance Appearance {
    material Material {
      emissiveColor 0.1 0.1 0.9
    }
  }
  geometry IndexedLineSet {
    coord Coordinate {
      point [
        0.34753 -0.543806 0.76387,
        0.353056 -0.56538 0.745451,
        0.34195 -0.591639 0.730092,
        0.3837 -0.565696 0.729905,
        0.415544 -0.554346 0.721127,
        0.394937 -0.53545 0.746537,
        0.34753 -0.543806 0.76387
      ]
    }
    coordIndex [
      0, 1, 2, 3, 4, 5, 6, -1
    ]
  }
}

# Shape 43: IndexedLineSet
Shape {
  appearance Appearance {
    material Material {
      emissiveColor 0.1 0.1 0.9
    }
  }
  geometry IndexedLineSet {
    coord Coordinate {
      point [
        0.340969 -0.612886 0.712819,
        0.307588 -0.636863 0.706962,
        0.288529 -0.665684 0.688198,
        0.321659 -0.645791 0.692452,
        0.340969 -0.612886 0.712819
      ]
    }
    coordIndex [
      0, 1, 2, 3, 4, -1
    ]
  }
}

# Shape 44: IndexedLineSet
Shape {
  appearance Appearance {
    material Material {
      emissiveColor 0.1 0.1 0.9
    }
  }
  geometry IndexedLineSet {
    coord Coordinate {
      point [
        0.157208 -0.913435 0.375396,
        0.136964 -0.914925 0.379676,
        0.11657 -0.916053 0.383742,
        0.13403 -0.922008 0.363233,
        0.154219 -0.920496 0.359033,
        0.174247 -0.918628 0.354628,
        0.193331 -0.918113 0.345964,
        0.211426 -0.918881 0.333102,
        0.230864 -0.915966 0.328189,
        0.254137 -0.904289 0.34304,
        0.234842 -0.907506 0.348255,
        0.215342 -0.910393 0.353287,
        0.19642 -0.91118 0.362176,
        0.177288 -0.91159 0.370908,
        0.157208 -0.913435 0.375396
      ]
    }
    coordIndex [
      0, 1, 2, 3, 4, 5, 6, 7, 8, 9,
      10, 11, 12, 13, 14, -1
    ]
  }
}

# Shape 45: IndexedLineSet
Shape {
  appearance Appearance {
    material Material {
      emissiveColor 0.1 0.1 0.9
    }
  }
  geometry IndexedLineSet {
    coord Coordinate {
      point [
        0.351908 -0.879239 0.321091,
        0.333806 -0.88403 0.327206,
        0.315451 -0.888531 0.333171,
        0.292694 -0.9013 0.319356,
        0.270632 -0.911748 0.308989,
        0.289975 -0.911781 0.290808,
        0.310095 -0.90438 0.293152,
        0.330019 -0.896622 0.295223,
        0.351908 -0.879239 0.321091
      ]
    }
    coordIndex [
      0, 1, 2, 3, 4, 5, 6, 7, 8, -1
    ]
  }
}

# Shape 46: IndexedLineSet
Shape {
  appearance Appearance {
    material Material {
      emissiveColor 0.1 0.1 0.9
    }
  }
  geometry IndexedLineSet {
    coord Coordinate {
      point [
        0.214012 -0.925921 0.311237,
        0.183175 -0.932928 0.309987,
        0.210122 -0.933394 0.290904,
        0.236521 -0.927777 0.288595,
        0.214012 -0.925921 0.311237
      ]
    }
    coordIndex [
      0, 1, 2, 3, 4, -1
    ]
  }
}

# Shape 47: IndexedLineSet
Shape {
  appearance Appearance {
    material Material {
      emissiveColor 0.1 0.1 0.9
    }
  }
  geometry IndexedLineSet {
    coord Coordinate {
      point [
        -0.122436 -0.327793 0.936782,
        -0.102001 -0.33319 0.937326,
        -0.0786497 -0.3121 0.946788,
        -0.0925959 -0.281498 0.955084,
        -0.110566 -0.267676 0.957144,
        -0.127236 -0.249435 0.959996,
        -0.141372 -0.222598 0.964606,
        -0.16218 -0.22093 0.961711,
        -0.162596 -0.248196 0.954967,
        -0.148422 -0.275195 0.949863,
        -0.13837 -0.305317 0.942144,
        -0.122436 -0.327793 0.936782
      ]
    }
    coordIndex [
      0, 1, 2, 3, 4, 5, 6, 7, 8, 9,
      10, 11, -1
    ]
  }
}

# Shape 48: IndexedLineSet
Shape {
  appearance Appearance {
    material Material {
      emissiveColor 0.1 0.1 0.9
    }
  }
  geometry IndexedLineSet {
    coord Coordinate {
      point [
        0.0012207 -0.276433 0.961032,
        0.00220101 -0.303432 0.952851,
        0.0178861 -0.328768 0.944241,
        0.0402042 -0.324044 0.945187,
        0.0657921 -0.31964 0.945252,
        0.0861152 -0.322903 0.942506,
        0.10471 -0.33442 0.936589,
        0.122513 -0.349895 0.928743,
        0.127787 -0.376508 0.917558,
        0.116043 -0.400909 0.908739,
        0.134119 -0.415794 0.899515,
        0.153006 -0.426163 0.891613,
        0.173401 -0.427927 0.887023,
        0.188083 -0.403807 0.895302,
        0.179184 -0.377607 0.908464,
        0.187009 -0.352693 0.916862,
        0.1693 -0.338074 0.925766,
        0.150051 -0.331611 0.931407,
        0.131557 -0.320636 0.938022,
        0.113073 -0.309384 0.944191,
        0.0937656 -0.302126 0.948645,
        0.0735753 -0.298886 0.951448,
        0.0542433 -0.291138 0.955142,
        0.0358572 -0.278879 0.959657,
        0.0012207 -0.276433 0.961032
      ]
    }
    coordIndex [
      0, 1, 2, 3, 4, 5, 6, 7, 8, 9,
      10, 11, 12, 13, 14, 15, 16, 17, 18, 19,
      20, 21, 22, 23, 24, -1
    ]
  }
}

# Shape 49: IndexedLineSet
Shape {
  appearance Appearance {
    material Material {
      emissiveColor 0.1 0.1 0.9
    }
  }
  geometry IndexedLineSet {
    coord Coordinate {
      point [
        -0.104872 -0.17847 0.978341,
        -0.121422 -0.201049 0.972027,
        -0.106191 -0.223474 0.968908,
        -0.090674 -0.245779 0.965076,
        -0.0742474 -0.222878 0.972015,
        -0.0886036 -0.196492 0.976494,
        -0.104872 -0.17847 0.978341
      ]
    }
    coordIndex [
      0, 1, 2, 3, 4, 5, 6, -1
    ]
  }
}

# Shape 50: IndexedLineSet
Shape {
  appearance Appearance {
    material Material {
      emissiveColor 0.1 0.1 0.9
    }
  }
  geometry IndexedLineSet {
    coord Coordinate {
      point [
        -0.0179113 -0.178147 0.983841,
        -0.0338617 -0.201299 0.978944,
        -0.0150679 -0.210161 0.977551,
        0.00477765 -0.214564 0.976698,
        0.0204378 -0.191147 0.981349,
        -0.00539368 -0.154259 0.988016,
        -0.0179113 -0.178147 0.983841
      ]
    }
    coordIndex [
      0, 1, 2, 3, 4, 5, 6, -1
    ]
  }
}

# Shape 51: IndexedLineSet
Shape {
  appearance Appearance {
    material Material {
      emissiveColor 0.1 0.1 0.9
    }
  }
  geometry IndexedLineSet {
    coord Coordinate {
      point [
        -0.0453015 -0.293096 0.955009,
        -0.0223674 -0.271351 0.96222,
        -0.0495411 -0.251585 0.966567,
        -0.0624827 -0.275514 0.959264,
        -0.0453015 -0.293096 0.955009
      ]
    }
    coordIndex [
      0, 1, 2, 3, 4, -1
    ]
  }
}

# Shape 52: IndexedLineSet
Shape {
  appearance Appearance {
    material Material {
      emissiveColor 0.1 0.1 0.9
    }
  }
  geometry IndexedLineSet {
    coord Coordinate {
      point [
        0.0147023 -0.141039 0.989895,
        0.030326 -0.162147 0.9863,
        0.047079 -0.178888 0.982742,
        0.0525413 -0.153486 0.986753,
        0.0629359 -0.120463 0.990721,
        0.0437754 -0.116495 0.992226,
        0.0236616 -0.116532 0.992905,
        0.0147023 -0.141039 0.989895
      ]
    }
    coordIndex [
      0, 1, 2, 3, 4, 5, 6, 7, -1
    ]
  }
}

# Shape 53: IndexedLineSet
Shape {
  appearance Appearance {
    material Material {
      emissiveColor 0.1 0.1 0.9
    }
  }
  geometry IndexedLineSet {
    coord Coordinate {
      point [
        0.0852697 -0.124859 0.988504,
        0.0833375 -0.150704 0.98506,
        0.0781583 -0.176074 0.981269,
        0.072924 -0.20155 0.97676,
        0.0900122 -0.217833 0.971827,
        0.112159 -0.208374 0.971597,
        0.130905 -0.215715 0.967642,
        0.14887 -0.227079 0.962431,
        0.167601 -0.233967 0.95769,
        0.185573 -0.244859 0.951634,
        0.202843 -0.25973 0.944137,
        0.223356 -0.274619 0.935252,
        0.240644 -0.288878 0.926628,
        0.246362 -0.314786 0.916633,
        0.262423 -0.336857 0.904246,
        0.28038 -0.34604 0.895345,
        0.297026 -0.363177 0.883107,
        0.315999 -0.363469 0.876376,
        0.335338 -0.359428 0.870838,
        0.350962 -0.334802 0.87449,
        0.357125 -0.310191 0.881047,
        0.340403 -0.297715 0.891903,
        0.328258 -0.272571 0.904407,
        0.328317 -0.247623 0.911532,
        0.325295 -0.222531 0.919056,
        0.309164 -0.204972 0.928657,
        0.315218 -0.180351 0.931725,
        0.321105 -0.15586 0.93413,
        0.304703 -0.142196 0.941773,
        0.287256 -0.136524 0.948074,
        0.281383 -0.11103 0.953151,
        0.26395 -0.105017 0.958802,
        0.248147 -0.0865286 0.96485,
        0.231253 -0.076038 0.969918,
        0.213122 -0.0735341 0.974254,
        0.196194 -0.0626799 0.97856,
        0.177937 -0.0598207 0.982222,
        0.152587 -0.0429693 0.987356,
        0.131209 -0.056025 0.98977,
        0.110993 -0.0778605 0.990767,
        0.0903568 -0.099778 0.990899,
        0.0852697 -0.124859 0.988504
      ]
    }
    coordIndex [
      0, 1, 2, 3, 4, 5, 6, 7, 8, 9,
      10, 11, 12, 13, 14, 15, 16, 17, 18, 19,
      20, 21, 22, 23, 24, 25, 26, 27, 28, 29,
      30, 31, 32, 33, 34, 35, 36, 37, 38, 39,
      40, 41, -1
    ]
  }
}

# Shape 54: IndexedLineSet
Shape {
  appearance Appearance {
    material Material {
      emissiveColor 0.1 0.1 0.9
    }
  }
  geometry IndexedLineSet {
    coord Coordinate {
      point [
        0.00225432 -0.704426 0.709774,
        -0.0186335 -0.698254 0.715607,
        -0.0136429 -0.677602 0.735302,
        0.0105517 -0.669911 0.742367,
        0.0330145 -0.66888 0.742637,
        0.0512748 -0.685036 0.726702,
        0.0711515 -0.693713 0.716729,
        0.0933972 -0.691709 0.716112,
        0.113914 -0.696217 0.708735,
        0.112628 -0.716536 0.688397,
        0.0888764 -0.725473 0.682488,
        0.0698517 -0.714261 0.696385,
        0.0542514 -0.733206 0.677839,
        0.0530475 -0.752588 0.656351,
        0.0198659 -0.753064 0.657647,
        0.0138262 -0.732895 0.680201,
        0.0222927 -0.713558 0.700241,
        0.00225432 -0.704426 0.709774
      ]
    }
    coordIndex [
      0, 1, 2, 3, 4, 5, 6, 7, 8, 9,
      10, 11, 12, 13, 14, 15, 16, 17, -1
    ]
  }
}

# Shape 55: IndexedLineSet
Shape {
  appearance Appearance {
    material Material {
      emissiveColor 0.1 0.1 0.9
    }
  }
  geometry IndexedLineSet {
    coord Coordinate {
      point [
        -0.215709 -0.336102 0.916791,
        -0.195588 -0.342543 0.918918,
        -0.18536 -0.37265 0.909271,
        -0.209042 -0.3787 0.901603,
        -0.233775 -0.375095 0.897024,
        -0.240312 -0.345934 0.906962,
        -0.215709 -0.336102 0.916791
      ]
    }
    coordIndex [
      0, 1, 2, 3, 4, 5, 6, -1
    ]
  }
}

# Shape 56: IndexedLineSet
Shape {
  appearance Appearance {
    material Material {
      emissiveColor 0.1 0.1 0.9
    }
  }
  geometry IndexedLineSet {
    coord Coordinate {
      point [
        -0.210345 -0.453154 0.86626,
        -0.221098 -0.423583 0.878461,
        -0.199479 -0.425975 0.88247,
        -0.175353 -0.433163 0.884093,
        -0.181624 -0.457452 0.870489,
        -0.210345 -0.453154 0.86626
      ]
    }
    coordIndex [
      0, 1, 2, 3, 4, 5, -1
    ]
  }
}

# Shape 57: IndexedLineSet
Shape {
  appearance Appearance {
    material Material {
      emissiveColor 0.1 0.1 0.9
    }
  }
  geometry IndexedLineSet {
    coord Coordinate {
      point [
        -0.0873324 -0.624166 0.776395,
        -0.105366 -0.604914 0.789289,
        -0.1035 -0.581617 0.806852,
        -0.0828747 -0.589961 0.803167,
        -0.0873324 -0.624166 0.776395
      ]
    }
    coordIndex [
      0, 1, 2, 3, 4, -1
    ]
  }
}

# Shape 58: IndexedLineSet
Shape {
  appearance Appearance {
    material Material {
      emissiveColor 0.1 0.1 0.9
    }
  }
  geometry IndexedLineSet {
    coord Coordinate {
      point [
        -0.208254 -0.488142 0.847554,
        -0.183292 -0.478484 0.858753,
        -0.162321 -0.484387 0.859663,
        -0.188361 -0.498291 0.846301,
        -0.208254 -0.488142 0.847554
      ]
    }
    coordIndex [
      0, 1, 2, 3, 4, -1
    ]
  }
}

# Shape 59: IndexedLineSet
Shape {
  appearance Appearance {
    material Material {
      emissiveColor 0.1 0.1 0.9
    }
  }
  geometry IndexedLineSet {
    coord Coordinate {
      point [
        0.16161 -0.704152 0.691414,
        0.160334 -0.72399 0.670918,
        0.1369 -0.733583 0.665669,
        0.103836 -0.752 0.650933,
        0.112167 -0.733025 0.67089,
        0.137368 -0.717223 0.68317,
        0.16161 -0.704152 0.691414
      ]
    }
    coordIndex [
      0, 1, 2, 3, 4, 5, 6, -1
    ]
  }
}

# Shape 60: IndexedLineSet
Shape {
  appearance Appearance {
    material Material {
      emissiveColor 0.1 0.1 0.9
    }
  }
  geometry IndexedLineSet {
    coord Coordinate {
      point [
        -0.865713 -0.368997 0.338205,
        -0.870739 -0.384831 0.306134,
        -0.857296 -0.407037 0.315222,
        -0.849696 -0.402463 0.340648,
        -0.865713 -0.368997 0.338205
      ]
    }
    coordIndex [
      0, 1, 2, 3, 4, -1
    ]
  }
}

  ] # end children
} # end Transform